<svg width="104" height="80" viewBox="0 0 104 80" fill="none" xmlns="http://www.w3.org/2000/svg">
<path d="M103.588 50.3232C103.319 52.2357 103.07 54.1536 102.779 56.0635C102.167 60.0685 101.493 64.0629 99.967 67.8503C99.3196 69.4594 99.0833 69.599 97.348 69.599C95.8733 69.599 94.3986 69.6259 92.9239 69.5883C92.2819 69.5722 92.0187 69.7333 91.887 70.4317C90.8045 76.0727 85.8378 80.1315 80.0841 80.1449C74.2927 80.1583 69.3233 76.0888 68.2274 70.378C68.1011 69.7199 67.8406 69.5856 67.2416 69.591C64.1928 69.6152 61.1413 69.6071 58.0925 69.5963C57.5741 69.5937 57.2598 69.642 57.1282 70.2894C56.0859 75.4146 52.414 79.0248 47.3506 79.981C42.6364 80.8702 37.8443 78.74 35.056 74.5147C34.9647 74.3777 34.8761 74.2353 34.731 74.0097C34.5295 74.2837 34.3576 74.5066 34.2018 74.7377C31.3948 78.8797 26.5919 80.8863 21.7918 79.9219C16.911 78.9415 13.2471 75.2588 12.2774 70.3243C12.1673 69.7656 11.9497 69.5131 11.3561 69.3573C8.73438 68.6696 6.98569 66.4321 6.91853 63.6922C6.86481 61.4492 6.88092 59.2009 6.91584 56.958C6.94271 55.0454 7.76736 53.4821 9.29041 52.1927C6.4028 50.1754 5.88436 47.081 5.29072 43.9946C3.80259 36.2719 2.27417 28.5572 0.759178 20.8426C0.463701 19.333 1.03585 18.6104 2.5777 18.597C4.25386 18.5835 5.93003 18.554 7.60351 18.6131C8.30191 18.6373 8.55171 18.3337 8.86331 17.7723C10.2064 15.3467 11.5871 12.9426 13.0349 10.5788C13.6823 9.52045 14.6359 9.33242 15.4014 9.90725C16.1509 10.4713 16.1132 11.3417 15.4283 12.3919C14.1604 14.3421 12.949 16.3299 11.5736 18.5244C12.2828 18.5567 12.632 18.5889 12.9812 18.5889C26.1514 18.5916 39.3216 18.5916 52.4919 18.5916C53.9182 18.5916 54.1251 18.2639 53.4508 16.9987C50.7298 11.895 47.2216 7.45748 41.8439 5.01845C34.1293 1.52108 26.7934 2.41556 20.0216 7.57298C19.8873 7.67506 19.7664 7.79056 19.6321 7.89264C18.7806 8.54269 17.8754 8.50239 17.3193 7.79056C16.774 7.08947 16.8922 6.27557 17.7035 5.5906C20.7496 3.01189 24.1986 1.18799 28.1365 0.476161C38.6367 -1.42295 46.8133 2.429 53.107 10.7749C53.8511 11.7607 54.5065 12.8083 55.272 13.9284C55.6454 12.9238 55.9893 11.9998 56.3358 11.0757C57.3565 8.35197 59.4087 6.92293 62.3259 6.92025C67.2523 6.91488 72.1787 6.90681 77.1051 6.92562C79.4716 6.93368 81.4057 8.48091 81.8516 10.6486C82.3163 12.905 81.1988 15.156 79.0929 15.9914C78.3998 16.2654 77.5994 16.3648 76.8446 16.3782C74.1638 16.4239 71.483 16.397 68.8022 16.397C68.4369 16.397 68.0716 16.397 67.6552 16.397C67.4135 17.356 67.1905 18.2505 66.9407 19.239C67.3356 19.2685 67.623 19.3061 67.9104 19.3088C73.5755 19.3652 79.2245 19.658 84.8359 20.5256C85.6471 20.6519 86.1709 20.9984 86.5416 21.7237C89.5367 27.5848 92.0509 33.6233 93.4558 40.0782C93.5901 40.6933 93.8345 40.9512 94.4496 41.1043C95.9082 41.4669 97.3507 41.9021 98.777 42.3802C101.213 43.1968 102.771 44.8676 103.413 47.3711C103.443 47.492 103.532 47.5967 103.593 47.7095C103.588 48.5799 103.588 49.4502 103.588 50.3232ZM3.98794 21.6055C4.29147 23.1473 4.63799 24.5441 4.82065 25.9624C4.93615 26.8703 5.30953 27.0691 6.17178 27.0691C20.6152 27.0423 35.0587 27.0503 49.5022 27.0503C49.8379 27.0503 50.1737 27.0342 50.5068 27.0637C51.447 27.1497 52.0782 27.7675 52.0782 28.576C52.0782 29.4329 51.4174 30.0239 50.4047 30.0615C50.069 30.0749 49.7359 30.0642 49.4001 30.0642C35.2575 30.0642 21.1176 30.0642 6.97494 30.0642C6.55859 30.0642 6.14492 30.0642 5.6829 30.0642C5.72051 30.3597 5.72857 30.4913 5.75274 30.6202C6.73856 35.6433 7.72976 40.6664 8.7102 45.6922C9.38174 49.1332 11.5844 50.9867 15.1006 50.9893C26.9626 50.9974 38.8274 50.9974 50.6895 50.992C54.1707 50.9893 56.274 49.3373 57.1174 45.9716C59.68 35.7508 62.2399 25.5273 64.7998 15.3037C65.2242 13.6115 65.517 13.3778 67.2953 13.3778C70.5133 13.3778 73.7286 13.3858 76.9466 13.3724C78.1876 13.367 78.8914 12.7465 78.9183 11.715C78.9451 10.6083 78.185 9.94217 76.8446 9.93949C72.0202 9.93143 67.1932 9.93143 62.3689 9.93949C60.6336 9.94217 59.7499 10.5734 59.1347 12.2415C58.2053 14.7504 57.284 17.2646 56.3626 19.7762C55.7179 21.5303 55.6078 21.6108 53.7544 21.6108C37.6347 21.6108 21.5178 21.6108 5.39817 21.6108C4.96301 21.6055 4.5386 21.6055 3.98794 21.6055ZM100.187 52.4963C100.314 51.4138 100.459 50.4252 100.542 49.4314C100.706 47.4543 99.7951 45.9313 97.9148 45.2947C96.1124 44.6849 94.2723 44.1692 92.4189 43.7394C91.4116 43.5057 90.9254 42.99 90.7508 42.0203C89.6092 35.6675 87.146 29.7848 84.3013 24.0418C84.1482 23.7329 83.6862 23.4079 83.3478 23.3837C77.9405 23.0023 72.5279 22.6638 67.118 22.3254C66.8682 22.3092 66.6157 22.3791 66.3927 22.4033C66.3927 37.1583 66.3927 51.8194 66.3927 66.4697C67.9453 66.698 68.0259 66.6711 68.1898 65.8895C69.3609 60.3425 73.4332 56.6303 79.0472 56.0312C81.0162 55.8217 82.9233 56.1548 84.7365 56.9419C85.5611 57.2991 85.8915 58.0754 85.6256 58.8302C85.3624 59.5823 84.6129 59.9611 83.748 59.757C83.4579 59.6871 83.1812 59.5555 82.8965 59.4588C78.1957 57.9035 73.0705 60.458 71.4696 65.1535C69.8686 69.8488 72.3533 74.9391 77.0729 76.626C81.6904 78.2753 86.8478 75.8524 88.5428 71.2134C89.5501 68.4628 89.2546 65.8223 87.7692 63.3054C87.146 62.2497 87.2561 61.4439 88.0593 60.9362C88.8705 60.4231 89.7435 60.7267 90.3694 61.7957C90.7239 62.4001 91.0382 63.0314 91.3068 63.6787C91.699 64.6296 91.7662 66.0184 92.4592 66.4616C93.2221 66.9505 94.5329 66.5798 95.6047 66.5798C97.3453 66.5825 97.3453 66.5798 97.8181 64.9198C97.8423 64.8392 97.8288 64.7452 97.8315 64.6699C94.1031 63.488 92.7493 61.5191 93.1871 57.4603C93.308 56.3428 93.9178 55.1529 94.6215 54.2476C95.9861 52.4936 98.0518 52.3539 100.187 52.4963ZM63.309 66.5825C63.309 66.099 63.309 65.739 63.309 65.3791C63.309 62.0294 63.309 58.6771 63.309 55.3275C63.309 54.0113 63.309 54.0086 62.025 54.0086C45.9081 54.0086 29.7885 54.0086 13.6715 54.0086C13.3707 54.0086 13.0672 53.9952 12.7663 54.0247C11.117 54.1805 9.96732 55.3329 9.9324 56.9956C9.88405 59.2063 9.88136 61.4197 9.93777 63.6304C9.97269 64.9923 10.6899 65.9432 12.0813 66.4321C13.231 60.9684 16.3711 57.2964 21.8804 56.2435C27.4085 55.1878 31.658 57.4845 34.7203 62.1449C34.8949 61.8844 35.0426 61.6614 35.1903 61.4385C38.0699 57.1245 43.1306 55.0669 48.1591 56.3724C53.0452 57.6403 56.0107 60.8771 57.1255 65.7954C57.2303 66.2601 57.284 66.604 57.8991 66.5932C59.6424 66.561 61.383 66.5825 63.309 66.5825ZM24.1529 77.1256C29.1626 77.1095 33.2268 73.0158 33.1972 68.0169C33.165 63.077 29.0793 59.0048 24.1422 58.9941C19.1432 58.9833 15.0737 63.0609 15.0737 68.076C15.0764 73.1125 19.1191 77.1418 24.1529 77.1256ZM45.2419 77.1283C50.2248 77.1525 54.2943 73.1501 54.3373 68.1888C54.3802 63.1603 50.3779 59.0586 45.3709 58.9968C40.3907 58.9377 36.2514 63.0153 36.2245 68.0088C36.195 73.0373 40.2161 77.1015 45.2419 77.1283ZM63.2419 50.9383C63.2419 45.4156 63.2419 39.9465 63.2419 34.4829C63.2069 34.5071 63.1237 34.5313 63.1076 34.5796C62.9894 34.961 62.8927 35.3478 62.7772 35.7293C61.2514 40.7793 60.8216 46.1596 58.2214 50.9356C59.868 50.9383 61.5227 50.9383 63.2419 50.9383ZM99.8327 55.6203C97.5414 55.2872 96.244 56.128 96.1339 57.8928C95.9807 60.4043 96.7973 61.5916 98.769 61.5406C99.1182 59.6038 99.4701 57.643 99.8327 55.6203Z" fill="white"/>
<path d="M36.7698 13.1148C36.7536 13.9663 36.0687 14.6405 35.2306 14.6244C34.3737 14.6083 33.7639 13.9528 33.7774 13.0557C33.7908 12.1907 34.4623 11.5138 35.2897 11.5326C36.109 11.5541 36.7859 12.274 36.7698 13.1148Z" fill="white"/>
<path d="M40.294 11.5055C41.1375 11.4948 41.8171 12.1582 41.8305 13.0124C41.8466 13.8639 41.1858 14.5543 40.3424 14.5677C39.4828 14.5812 38.8382 13.9445 38.8274 13.0635C38.8167 12.1851 39.4425 11.5189 40.294 11.5055Z" fill="white"/>
<path d="M37.7529 10.2966C36.931 10.2752 36.2567 9.55526 36.2729 8.71449C36.289 7.86567 36.9793 7.19413 37.8174 7.21025C38.677 7.22905 39.2867 7.88447 39.2706 8.77628C39.2572 9.64122 38.5803 10.3181 37.7529 10.2966Z" fill="white"/>
<path d="M70.1936 34.3461C70.1936 31.8695 70.1856 29.3928 70.1963 26.9135C70.2017 25.5248 70.7819 24.9526 72.1868 25.052C75.155 25.2669 78.1205 25.5382 81.0914 25.7665C81.8757 25.8256 82.3834 26.1909 82.7165 26.8974C84.8574 31.445 86.6893 36.1002 87.8175 41.0131C88.2822 43.0385 87.7692 43.6832 85.7196 43.6859C81.3009 43.6859 76.8822 43.6859 72.4634 43.6859C70.5858 43.6859 70.199 43.291 70.199 41.3758C70.1936 39.0334 70.1936 36.6911 70.1936 34.3461ZM84.5431 40.6371C84.5296 40.4705 84.5485 40.3335 84.5055 40.218C83.1517 36.5219 81.7978 32.8257 80.4198 29.1376C80.3419 28.9308 80.0679 28.6783 79.8665 28.6595C77.6853 28.4446 75.5015 28.27 73.2961 28.082C73.2961 32.3906 73.2961 36.5138 73.2961 40.6344C77.089 40.6371 80.7959 40.6371 84.5431 40.6371Z" fill="white"/>
<path d="M80.127 61.7663C83.6217 61.7904 86.4153 64.6405 86.3724 68.1459C86.3321 71.6352 83.4525 74.4664 79.9927 74.4207C76.5142 74.3751 73.6991 71.4848 73.7421 68.0116C73.7904 64.4981 76.6055 61.7421 80.127 61.7663ZM83.3558 68.0331C83.3316 66.1823 81.8516 64.7533 79.9874 64.7828C78.1877 64.8124 76.7613 66.2656 76.7586 68.076C76.7586 69.908 78.2682 71.4176 80.0814 71.4042C81.9053 71.3854 83.38 69.8677 83.3558 68.0331Z" fill="white"/>
<path d="M30.4305 68.052C30.4385 71.552 27.6315 74.3994 24.1502 74.4182C20.7039 74.437 17.8029 71.5628 17.7814 68.103C17.7599 64.6325 20.6099 61.7717 24.0965 61.7637C27.6127 61.7556 30.4197 64.5412 30.4305 68.052ZM24.1207 64.7802C22.2807 64.7802 20.7791 66.2818 20.7979 68.103C20.8167 69.8705 22.3022 71.3694 24.0724 71.4043C25.8936 71.4392 27.4059 69.9484 27.4166 68.1057C27.4247 66.2415 25.9768 64.7802 24.1207 64.7802Z" fill="white"/>
<path d="M38.967 68.0786C38.967 64.5731 41.7714 61.7661 45.2795 61.7661C48.7903 61.7661 51.5947 64.5678 51.5974 68.0759C51.6 71.5572 48.7527 74.4152 45.2822 74.4179C41.8171 74.4206 38.967 71.5625 38.967 68.0786ZM41.9863 68.0356C41.9648 69.8729 43.4422 71.3906 45.2634 71.4014C47.0792 71.4121 48.5862 69.8998 48.5808 68.0705C48.5781 66.2627 47.1464 64.8095 45.3467 64.7827C43.4825 64.7531 42.0078 66.1821 41.9863 68.0356Z" fill="white"/>
</svg>
