<svg width="118" height="118" viewBox="0 0 118 118" fill="none" xmlns="http://www.w3.org/2000/svg">
<path d="M1.14849 117.859C0.765664 117.859 0.382831 117.859 0 117.859C0 78.5733 0 39.2855 0 0C39.284 0 78.5702 0 117.854 0C117.854 2.22097 117.854 4.44193 117.854 6.6629C117.084 5.35984 116.427 3.97144 115.518 2.77447C113.535 0.163743 110.082 -0.345945 107.446 1.59596C102.054 5.5674 96.7155 9.60804 91.3674 13.6371C90.2235 14.4974 90.1151 15.5306 90.9638 16.7322C91.4435 17.4102 91.9485 18.0698 92.4951 18.8125C91.0791 19.8803 89.7253 20.872 88.4039 21.9006C86.5589 23.3397 85.6618 25.2517 85.7149 27.5879C85.7425 28.7734 85.9916 29.9727 85.8624 31.135C85.7679 31.9768 85.4127 32.9731 84.8246 33.5359C83.5931 34.7121 82.131 35.6438 80.7081 36.7186C80.4267 36.3611 80.1892 36.0705 79.9632 35.7684C77.4125 32.3712 74.7327 29.064 72.3527 25.5515C70.0811 22.1958 65.7777 22.3711 63.8266 26.1557C58.9582 35.6023 53.8038 44.9013 48.8063 54.281C48.3681 55.1044 47.893 55.3834 46.9682 55.3811C32.2685 55.3512 17.5687 55.3581 2.87123 55.3604C0.86944 55.3604 0.232929 55.9785 0.232929 57.9319C0.230623 64.0574 0.230623 70.183 0.232929 76.3062C0.232929 78.2181 0.860219 78.8524 2.77437 78.8547C6.71799 78.8639 10.6593 78.857 14.6029 78.857C15.0065 78.857 15.4101 78.857 15.8091 78.857C15.8091 84.1822 15.8091 89.3276 15.8091 94.5767C15.3086 94.5767 14.8958 94.5767 14.4807 94.5767C10.5763 94.5767 6.67186 94.5721 2.76745 94.579C0.853301 94.5836 0.232929 95.2132 0.232929 97.1321C0.230623 103.258 0.198336 109.383 0.272134 115.506C0.281359 116.295 0.844075 117.075 1.14849 117.859Z" fill="#005792"/>
<path d="M1.14848 117.859C0.841758 117.075 0.27904 116.295 0.269815 115.509C0.196016 109.385 0.225998 103.26 0.23061 97.1344C0.23061 95.2155 0.850981 94.5859 2.76513 94.5813C6.66955 94.5721 10.574 94.579 14.4784 94.579C14.8935 94.579 15.3063 94.579 15.8067 94.579C15.8067 89.3299 15.8067 84.1845 15.8067 78.8593C15.4078 78.8593 15.0042 78.8593 14.6006 78.8593C10.657 78.8593 6.71567 78.8639 2.77205 78.857C0.860206 78.8523 0.232916 78.2204 0.23061 76.3085C0.225998 70.183 0.228304 64.0574 0.23061 57.9342C0.23061 55.9808 0.867128 55.3627 2.86892 55.3627C17.5687 55.3604 32.2685 55.3535 46.9659 55.3835C47.8907 55.3858 48.3658 55.1067 48.804 54.2834C53.8015 44.9036 58.9559 35.6046 63.8243 26.158C65.7754 22.3711 70.0788 22.1981 72.3504 25.5538C74.7304 29.0663 77.4102 32.3758 79.9609 35.7707C80.1869 36.0728 80.4267 36.3634 80.7057 36.7209C82.1287 35.6462 83.5908 34.7121 84.8223 33.5382C85.4104 32.9755 85.7656 31.9791 85.8601 31.1373C85.9893 29.975 85.7402 28.7757 85.7125 27.5903C85.6595 25.2563 86.5566 23.342 88.4016 21.9029C89.723 20.872 91.0745 19.8826 92.4928 18.8148C91.9439 18.0722 91.4412 17.4126 90.9615 16.7345C90.1105 15.5329 90.2212 14.502 91.3651 13.6395C96.7132 9.61035 102.054 5.56971 107.444 1.59827C110.08 -0.343637 113.532 0.166055 115.516 2.77679C116.424 3.97375 117.082 5.36215 117.852 6.66521C117.852 7.4309 117.852 8.19659 117.852 8.96228C117.151 10.0739 116.685 11.4831 115.709 12.2441C110.347 16.4347 104.868 20.4776 99.4114 24.5459C98.3367 25.3462 97.352 25.1663 96.501 24.1193C95.9521 23.4412 95.4378 22.7355 94.8613 21.9767C94.2178 22.4472 93.6344 22.86 93.0624 23.2936C89.4532 26.0197 89.3771 25.5192 89.7968 30.1572C90.0759 33.2222 88.9666 35.5954 86.4275 37.339C85.279 38.13 84.1927 39.011 83.035 39.8805C85.7909 43.5521 88.4315 47.1131 91.1229 50.6371C92.1722 52.0116 93.0348 53.4139 92.7326 55.3604C93.7381 55.3604 94.6468 55.3581 95.5554 55.3604C97.6633 55.365 98.2606 55.967 98.2606 58.1141C98.2652 63.2802 98.2629 68.4463 98.2629 73.6124C98.2629 74.0183 98.2629 74.4266 98.2629 74.9386C98.821 74.9386 99.2338 74.9386 99.6466 74.9386C103.512 74.9386 107.377 74.9363 111.24 74.9409C113.288 74.9432 113.934 75.5797 113.934 77.6046C113.936 83.6887 113.936 89.7727 113.934 95.8567C113.934 97.8217 113.276 98.4951 111.33 98.502C107.428 98.5112 103.523 98.5043 99.6213 98.5043C99.2108 98.5043 98.8026 98.5043 98.2629 98.5043C98.2629 99.0394 98.2629 99.4499 98.2629 99.8581C98.2629 104.985 98.3021 110.114 98.2237 115.241C98.2099 116.118 97.6887 116.987 97.4004 117.861C65.3233 117.859 33.2371 117.859 1.14848 117.859ZM77.5439 39.0872C74.5805 35.1365 71.7023 31.278 68.7965 27.4427C68.1738 26.6216 67.8071 27.1682 67.4773 27.7863C61.4005 39.0987 55.3167 50.4042 49.2537 61.7235C49.0761 62.0556 49.1015 62.4961 49.0323 62.8858C49.452 62.9435 49.8994 63.1234 50.2892 63.0427C62.775 60.4158 75.2562 57.7613 87.7374 55.1113C89.0842 54.8253 89.1765 54.5993 88.3577 53.5084C85.7218 49.9867 83.0812 46.4696 80.4382 42.9525C80.263 42.7196 80.0531 42.512 79.8432 42.2768C77.2165 44.244 74.652 46.179 72.069 48.0886C70.9205 48.9374 69.8643 48.8589 69.1217 47.941C68.3583 46.9978 68.5751 45.8423 69.7144 44.9774C72.2743 43.0332 74.8457 41.1121 77.5439 39.0872ZM109.96 78.9561C100.814 78.9561 91.734 78.9561 82.6038 78.9561C82.583 79.3897 82.5553 79.7287 82.5553 80.0678C82.553 84.5097 82.5807 88.9493 82.5323 93.3913C82.5207 94.3645 82.8298 94.6021 83.7661 94.5975C92.1123 94.5652 100.458 94.579 108.805 94.5767C109.178 94.5767 109.549 94.5421 109.962 94.5213C109.96 89.2814 109.96 84.1361 109.96 78.9561ZM19.8749 94.4683C29.0928 94.4683 38.1654 94.4683 47.2035 94.4683C47.2035 89.2215 47.2035 84.0807 47.2035 78.9654C38.034 78.9654 28.9614 78.9654 19.8749 78.9654C19.8749 84.1845 19.8749 89.2953 19.8749 94.4683ZM51.2831 94.5006C60.4365 94.5006 69.4814 94.5006 78.5564 94.5006C78.5564 89.2768 78.5564 84.1315 78.5564 78.9239C69.4399 78.9239 60.3973 78.9239 51.2831 78.9239C51.2831 84.1246 51.2831 89.2722 51.2831 94.5006ZM66.9331 114.093C76.0841 114.093 85.1637 114.093 94.2501 114.093C94.2501 108.871 94.2501 103.73 94.2501 98.5689C85.1014 98.5689 76.0472 98.5689 66.9331 98.5689C66.9331 103.749 66.9331 108.864 66.9331 114.093ZM31.5443 98.6012C22.3633 98.6012 13.2861 98.6012 4.2365 98.6012C4.2365 103.841 4.2365 108.984 4.2365 114.106C13.3806 114.106 22.4325 114.106 31.5443 114.106C31.5443 108.922 31.5443 103.809 31.5443 98.6012ZM62.8903 114.139C62.8903 108.894 62.8903 103.753 62.8903 98.5966C53.7508 98.5966 44.6782 98.5966 35.6309 98.5966C35.6309 103.83 35.6309 108.966 35.6309 114.139C44.745 114.139 53.7623 114.139 62.8903 114.139ZM94.2709 74.8763C94.2709 69.6433 94.2709 64.5026 94.2709 59.3088C91.7179 59.3088 89.1718 58.9467 86.7711 59.378C80.3483 60.5334 73.9878 62.0441 67.595 63.3748C66.9123 63.5178 66.8616 63.866 66.8639 64.4103C66.8777 67.0118 66.8708 69.611 66.8708 72.2125C66.8708 73.082 66.8708 73.9515 66.8708 74.8763C76.0495 74.8763 85.0991 74.8763 94.2709 74.8763ZM31.5489 59.3595C22.3656 59.3595 13.2837 59.3595 4.20421 59.3595C4.20421 60.6557 4.20421 61.8642 4.20421 63.0496C4.32874 63.1049 4.39562 63.158 4.4625 63.1603C5.53258 63.1741 6.60267 63.1741 7.67505 63.188C9.11413 63.2064 10.0228 63.9606 10.0343 65.1345C10.0458 66.3084 9.13488 67.0856 7.70504 67.0995C6.53579 67.111 5.36654 67.1018 4.20651 67.1018C4.20651 69.7955 4.20651 72.3048 4.20651 74.8578C13.3437 74.8578 22.4186 74.8578 31.5512 74.8578C31.5489 69.6664 31.5489 64.5533 31.5489 59.3595ZM35.6009 74.8509C44.7404 74.8509 53.813 74.8509 62.8995 74.8509C62.8995 71.3361 62.8995 67.909 62.8995 64.4472C62.6896 64.4726 62.5374 64.4795 62.3899 64.5095C58.5039 65.3282 54.6179 66.1539 50.7297 66.9726C48.7994 67.3785 47.1504 66.9011 45.9327 65.3075C44.752 63.7599 44.6805 62.0786 45.5199 60.3443C45.6744 60.026 45.8313 59.7101 46.0181 59.3318C42.4388 59.3318 39.0464 59.3318 35.5963 59.3318C35.6009 64.5302 35.6009 69.671 35.6009 74.8509ZM98.5489 20.3139C103.459 16.6307 108.24 13.056 113.002 9.45813C114.12 8.61403 114.222 7.62463 113.419 6.45303C113.226 6.16935 113.011 5.89721 112.804 5.62507C111.648 4.11213 110.756 3.98298 109.229 5.1269C104.789 8.45489 100.355 11.7875 95.9198 15.1224C95.6615 15.3184 95.4194 15.5375 95.1403 15.7728C96.2865 17.2995 97.3843 18.7617 98.5489 20.3139Z" fill="white"/>
<path d="M97.4096 117.859C97.6979 116.985 98.2191 116.118 98.2329 115.239C98.3113 110.112 98.2721 104.985 98.2721 99.8558C98.2721 99.4476 98.2721 99.0371 98.2721 98.502C98.8118 98.502 99.22 98.502 99.6305 98.502C103.533 98.502 107.437 98.5089 111.339 98.4997C113.283 98.4951 113.941 97.8193 113.943 95.8544C113.945 89.7704 113.945 83.6863 113.943 77.6023C113.943 75.5797 113.297 74.9409 111.249 74.9385C107.384 74.9339 103.519 74.9362 99.6559 74.9362C99.2431 74.9362 98.8325 74.9362 98.2721 74.9362C98.2721 74.4242 98.2721 74.016 98.2721 73.6101C98.2721 68.444 98.2745 63.2779 98.2698 58.1118C98.2675 55.9646 97.6702 55.3604 95.5647 55.3581C94.656 55.3558 93.7474 55.3581 92.7419 55.3581C93.044 53.4116 92.1815 52.0093 91.1321 50.6348C88.4408 47.1108 85.8002 43.5498 83.0443 39.8782C84.1997 39.0064 85.2882 38.1254 86.4367 37.3367C88.9735 35.5908 90.0828 33.2176 89.8061 30.1548C89.384 25.5169 89.4624 26.0173 93.0716 23.2913C93.6436 22.86 94.227 22.4449 94.8705 21.9744C95.447 22.7309 95.9613 23.4389 96.5102 24.117C97.3589 25.164 98.3459 25.3439 99.4206 24.5436C104.877 20.4753 110.357 16.4324 115.719 12.2418C116.692 11.4807 117.16 10.0693 117.861 8.95996C117.861 45.2588 117.861 81.5599 117.861 117.859C111.028 117.859 104.22 117.859 97.4096 117.859Z" fill="#005792"/>
<path d="M77.5439 39.0871C74.848 41.1143 72.2743 43.0354 69.7167 44.975C68.5774 45.8399 68.3606 46.9954 69.124 47.9386C69.8666 48.8588 70.9228 48.9349 72.0713 48.0862C74.6543 46.1766 77.2188 44.2416 79.8456 42.2744C80.0554 42.5096 80.2653 42.7172 80.4406 42.9501C83.0835 46.4649 85.7241 49.9843 88.3601 53.506C89.1788 54.5992 89.0865 54.8229 87.7397 55.1089C75.2585 57.7588 62.7773 60.4111 50.2915 63.0403C49.8994 63.1233 49.4543 62.9411 49.0346 62.8834C49.1038 62.4937 49.0784 62.0532 49.256 61.7211C55.319 50.4041 61.4051 39.0963 67.4797 27.7839C67.8118 27.1681 68.1784 26.6215 68.7988 27.4402C71.7023 31.2779 74.5782 35.1341 77.5439 39.0871Z" fill="#005792"/>
<path d="M109.96 78.9559C109.96 84.1359 109.96 89.2835 109.96 94.5188C109.547 94.5396 109.176 94.5742 108.802 94.5742C100.456 94.5765 92.11 94.5626 83.7638 94.5949C82.8275 94.5995 82.5184 94.362 82.53 93.3887C82.5807 88.9491 82.5507 84.5072 82.553 80.0653C82.553 79.7262 82.583 79.3872 82.6015 78.9536C91.7341 78.9559 100.814 78.9559 109.96 78.9559Z" fill="#005792"/>
<path d="M19.8749 94.4683C19.8749 89.2952 19.8749 84.1822 19.8749 78.9653C28.9614 78.9653 38.034 78.9653 47.2035 78.9653C47.2035 84.083 47.2035 89.2214 47.2035 94.4683C38.1654 94.4683 29.0928 94.4683 19.8749 94.4683Z" fill="#005792"/>
<path d="M51.2831 94.5006C51.2831 89.2722 51.2831 84.1245 51.2831 78.9238C60.395 78.9238 69.4399 78.9238 78.5564 78.9238C78.5564 84.1338 78.5564 89.2768 78.5564 94.5006C69.4814 94.5006 60.4342 94.5006 51.2831 94.5006Z" fill="#005792"/>
<path d="M66.9331 114.093C66.9331 108.866 66.9331 103.751 66.9331 98.5688C76.0472 98.5688 85.1014 98.5688 94.2501 98.5688C94.2501 103.73 94.2501 108.869 94.2501 114.093C85.1637 114.093 76.0841 114.093 66.9331 114.093Z" fill="#005792"/>
<path d="M31.5443 98.6011C31.5443 103.809 31.5443 108.922 31.5443 114.106C22.4325 114.106 13.3806 114.106 4.23651 114.106C4.23651 108.984 4.23651 103.843 4.23651 98.6011C13.2861 98.6011 22.3656 98.6011 31.5443 98.6011Z" fill="#005792"/>
<path d="M62.8903 114.139C53.7623 114.139 44.7451 114.139 35.6309 114.139C35.6309 108.968 35.6309 103.83 35.6309 98.5967C44.6782 98.5967 53.7508 98.5967 62.8903 98.5967C62.8903 103.751 62.8903 108.894 62.8903 114.139Z" fill="#005792"/>
<path d="M94.2709 74.8763C85.0991 74.8763 76.0495 74.8763 66.8708 74.8763C66.8708 73.9514 66.8708 73.0819 66.8708 72.2125C66.8708 69.611 66.8777 67.0118 66.8639 64.4103C66.8616 63.8637 66.9123 63.5154 67.595 63.3747C73.9878 62.044 80.3483 60.5357 86.7711 59.3779C89.1719 58.9466 91.7179 59.3087 94.2709 59.3087C94.2709 64.5025 94.2709 69.6433 94.2709 74.8763Z" fill="#005792"/>
<path d="M31.5489 59.3594C31.5489 64.5532 31.5489 69.6662 31.5489 74.8577C22.4186 74.8577 13.3414 74.8577 4.20421 74.8577C4.20421 72.3046 4.20421 69.7931 4.20421 67.1016C5.36653 67.1016 6.53348 67.1108 7.70273 67.0993C9.13258 67.0855 10.0435 66.3082 10.032 65.1343C10.0205 63.9627 9.11182 63.2086 7.67275 63.1878C6.60266 63.174 5.53259 63.174 4.4602 63.1602C4.39332 63.1602 4.32644 63.1048 4.2019 63.0495C4.2019 61.864 4.2019 60.6555 4.2019 59.3594C13.2838 59.3594 22.3656 59.3594 31.5489 59.3594ZM19.8149 63.1878C18.5557 63.1878 17.2966 63.1602 16.0397 63.1948C14.7689 63.2293 13.9756 64.0227 13.9871 65.1713C13.9987 66.3221 14.7851 67.0809 16.0812 67.0924C18.5996 67.1155 21.1156 67.1178 23.634 67.0901C24.8701 67.0763 25.7281 66.2252 25.7142 65.1274C25.7004 64.0366 24.8332 63.2201 23.5902 63.1924C22.3333 63.1671 21.0718 63.1878 19.8149 63.1878Z" fill="#005792"/>
<path d="M35.601 74.8511C35.601 69.6712 35.601 64.5304 35.601 59.332C39.051 59.332 42.4435 59.332 46.0227 59.332C45.8359 59.7126 45.6768 60.0262 45.5246 60.3445C44.6851 62.0811 44.7566 63.7624 45.9374 65.3076C47.1528 66.9013 48.804 67.3787 50.7343 66.9728C54.6203 66.1541 58.5062 65.3307 62.3945 64.5097C62.5421 64.4797 62.6943 64.4728 62.9042 64.4474C62.9042 67.9068 62.9042 71.3363 62.9042 74.8511C53.8131 74.8511 44.7405 74.8511 35.601 74.8511Z" fill="#005792"/>
<path d="M98.5489 20.3138C97.3842 18.7617 96.2865 17.2995 95.138 15.7727C95.4171 15.5375 95.6592 15.3184 95.9175 15.1224C100.352 11.7875 104.787 8.45486 109.227 5.12687C110.751 3.98295 111.646 4.1121 112.801 5.62503C113.011 5.89948 113.223 6.16932 113.417 6.45299C114.22 7.62229 114.116 8.61169 113 9.4581C108.24 13.0582 103.459 16.6307 98.5489 20.3138Z" fill="#005792"/>
<path d="M19.8149 63.1882C21.0741 63.1882 22.3333 63.1651 23.5902 63.1951C24.8332 63.2228 25.7004 64.0392 25.7142 65.13C25.7281 66.2278 24.8678 67.0787 23.634 67.0926C21.1179 67.1203 18.5996 67.1179 16.0812 67.0949C14.7828 67.0833 13.9964 66.3246 13.9872 65.1738C13.9756 64.0253 14.769 63.232 16.0397 63.1974C17.2966 63.1628 18.5558 63.1882 19.8149 63.1882Z" fill="#005792"/>
</svg>
