<svg width="52" height="52" viewBox="0 0 52 52" fill="none" xmlns="http://www.w3.org/2000/svg">
<g clip-path="url(#clip0_52_228)">
<path d="M26 4.3335C31.8868 4.3335 32.6213 4.35516 34.931 4.4635C37.2385 4.57183 38.8093 4.93366 40.1916 5.471C41.6216 6.02133 42.8263 6.76666 44.031 7.96916C45.1327 9.05227 45.9852 10.3624 46.5291 11.8085C47.0643 13.1887 47.4283 14.7617 47.5366 17.0692C47.6385 19.3788 47.6666 20.1133 47.6666 26.0002C47.6666 31.887 47.645 32.6215 47.5366 34.9312C47.4283 37.2387 47.0643 38.8095 46.5291 40.1918C45.9868 41.6387 45.1341 42.9492 44.031 44.0312C42.9476 45.1325 41.6375 45.985 40.1916 46.5293C38.8115 47.0645 37.2385 47.4285 34.931 47.5368C32.6213 47.6387 31.8868 47.6668 26 47.6668C20.1131 47.6668 19.3786 47.6452 17.069 47.5368C14.7615 47.4285 13.1906 47.0645 11.8083 46.5293C10.3617 45.9865 9.05129 45.1339 7.96898 44.0312C6.86703 42.9482 6.0145 41.638 5.47081 40.1918C4.93348 38.8117 4.57165 37.2387 4.46331 34.9312C4.36148 32.6215 4.33331 31.887 4.33331 26.0002C4.33331 20.1133 4.35498 19.3788 4.46331 17.0692C4.57165 14.7595 4.93348 13.1908 5.47081 11.8085C6.01299 10.3616 6.86572 9.05102 7.96898 7.96916C9.0516 6.86683 10.3619 6.01424 11.8083 5.471C13.1906 4.93366 14.7593 4.57183 17.069 4.4635C19.3786 4.36166 20.1131 4.3335 26 4.3335ZM26 15.1668C23.1268 15.1668 20.3713 16.3082 18.3397 18.3398C16.308 20.3715 15.1666 23.127 15.1666 26.0002C15.1666 28.8733 16.308 31.6288 18.3397 33.6605C20.3713 35.6921 23.1268 36.8335 26 36.8335C28.8732 36.8335 31.6287 35.6921 33.6603 33.6605C35.6919 31.6288 36.8333 28.8733 36.8333 26.0002C36.8333 23.127 35.6919 20.3715 33.6603 18.3398C31.6287 16.3082 28.8732 15.1668 26 15.1668ZM40.0833 14.6252C40.0833 13.9069 39.798 13.218 39.2901 12.7101C38.7822 12.2022 38.0933 11.9168 37.375 11.9168C36.6567 11.9168 35.9678 12.2022 35.4599 12.7101C34.952 13.218 34.6666 13.9069 34.6666 14.6252C34.6666 15.3435 34.952 16.0323 35.4599 16.5402C35.9678 17.0482 36.6567 17.3335 37.375 17.3335C38.0933 17.3335 38.7822 17.0482 39.2901 16.5402C39.798 16.0323 40.0833 15.3435 40.0833 14.6252ZM26 19.5002C27.7239 19.5002 29.3772 20.185 30.5962 21.404C31.8152 22.623 32.5 24.2763 32.5 26.0002C32.5 27.7241 31.8152 29.3774 30.5962 30.5964C29.3772 31.8153 27.7239 32.5002 26 32.5002C24.2761 32.5002 22.6228 31.8153 21.4038 30.5964C20.1848 29.3774 19.5 27.7241 19.5 26.0002C19.5 24.2763 20.1848 22.623 21.4038 21.404C22.6228 20.185 24.2761 19.5002 26 19.5002Z" fill="white"/>
</g>
<defs>
<clipPath id="clip0_52_228">
<rect width="52" height="52" fill="white"/>
</clipPath>
</defs>
</svg>
