<svg width="118" height="118" viewBox="0 0 118 118" fill="none" xmlns="http://www.w3.org/2000/svg">
<g clip-path="url(#clip0_271_258)">
<path d="M36.0444 85.2562L30.9989 77.8805C30.5148 77.3061 30.1626 76.6243 29.9691 75.8869C29.7757 75.1495 29.7461 74.3758 29.8825 73.6247C30.019 72.8735 30.318 72.1647 30.7567 71.552C31.1954 70.9393 31.7624 70.4388 32.4146 70.0886L39.6743 64.9445L38.8394 63.6206L12.2689 23.7158C12.0631 23.3518 11.7789 23.0428 11.4387 22.813C11.0985 22.5832 10.7117 22.4391 10.3088 22.392C9.12961 22.207 7.99814 21.7769 6.98171 21.1271C5.96527 20.4773 5.08463 19.6211 4.39216 18.6095C3.08541 16.7561 1.85126 14.8271 0.76231 12.9737C-0.326644 11.1203 4.37051e-05 10.8177 1.27049 9.75858L12.1963 0.642872C12.3923 0.410011 12.6393 0.229757 12.9162 0.11735C13.1932 0.00494383 13.4921 -0.0363089 13.7876 -0.0029181C14.0831 0.0304727 14.3666 0.137526 14.614 0.309186C14.8614 0.480846 15.0655 0.712065 15.2091 0.983293C16.661 2.87452 18.1493 4.76574 19.5649 6.65697C20.9403 8.4697 21.6369 10.7414 21.525 13.0493C21.4889 13.6169 21.6152 14.183 21.888 14.6758L49.6563 56.8879L50.0919 57.4174L54.4477 54.3536C55.573 53.5215 56.6982 52.6894 57.8598 51.9329C58.8422 51.2121 60.0589 50.9267 61.2429 51.1395C62.4269 51.3522 63.4817 52.0456 64.1757 53.0676C68.4031 58.423 71.7069 64.502 73.94 71.0342C74.0094 71.3251 74.1769 71.5801 74.4119 71.7529C75.8811 72.5448 77.1579 73.6751 78.1453 75.0579C79.1328 76.4408 79.8049 78.0399 80.1107 79.7339C81.2983 79.1433 82.6099 78.8752 83.9236 78.9546C85.2373 79.0339 86.5104 79.4582 87.6245 80.1878C89.7941 81.7487 91.3731 84.0495 92.0892 86.6936C93.525 86.1642 95.0785 86.0864 96.5564 86.4697C98.0343 86.853 99.3714 87.6806 100.402 88.8496C102.514 91.1158 103.732 94.1264 103.814 97.2844C104.631 97.3371 105.444 97.4508 106.246 97.6249C108.019 98.1619 109.611 99.2103 110.838 100.649C112.064 102.088 112.876 103.859 113.179 105.757C113.463 107.605 114.258 109.327 115.465 110.712C116.491 112.087 117.255 113.653 117.716 115.327C117.831 115.597 117.879 115.894 117.856 116.189C117.833 116.484 117.74 116.768 117.585 117.016C117.43 117.264 117.218 117.467 116.968 117.608C116.719 117.749 116.439 117.823 116.155 117.823H25.1549C24.9018 117.825 24.6512 117.771 24.4199 117.664C24.1886 117.557 23.9818 117.4 23.8135 117.203C23.6451 117.006 23.519 116.774 23.4436 116.522C23.3682 116.27 23.3453 116.005 23.3762 115.743C23.4065 113.649 23.8621 111.585 24.713 109.688C25.5638 107.791 26.7907 106.103 28.3128 104.736C28.6156 104.56 28.8413 104.269 28.9428 103.923C29.0443 103.578 29.0137 103.205 28.8573 102.882C28.1036 100.6 27.885 98.1625 28.2196 95.7739C28.5543 93.3854 29.4326 91.1149 30.7811 89.1522C32.0588 87.2671 33.9155 85.8927 36.0444 85.2562ZM113.142 114.078L113.396 113.738C112.783 113.014 112.102 112.356 111.364 111.771C110.891 111.51 110.503 111.108 110.251 110.616C109.999 110.124 109.893 109.565 109.948 109.01C110.023 107.821 109.847 106.629 109.433 105.519C109.02 104.408 108.378 103.405 107.552 102.58C107.031 101.94 106.334 101.481 105.556 101.265C104.778 101.049 103.955 101.085 103.197 101.369C100.837 102.239 99.966 101.369 100.184 98.7974C100.357 97.4973 100.248 96.1733 99.8643 94.923C99.4811 93.6727 98.8336 92.5279 97.9696 91.5729C97.634 91.1257 97.2156 90.7533 96.7392 90.4779C96.2628 90.2025 95.7381 90.0296 95.1964 89.9696C94.6546 89.9097 94.1068 89.9637 93.5855 90.1287C93.0642 90.2937 92.5801 90.5661 92.1618 90.9299C90.4558 92.1025 89.3668 91.4973 88.895 89.4169C88.5108 87.7093 87.8212 86.0925 86.8622 84.6511C86.5134 84.0861 86.0417 83.6148 85.4854 83.2754C84.9291 82.936 84.3038 82.738 83.6603 82.6974C83.0168 82.6569 82.3732 82.775 81.7818 83.0421C81.1903 83.3093 80.6675 83.7179 80.2559 84.235C79.5663 84.9158 78.8766 85.4832 77.8602 85.0293C76.8439 84.5754 76.7713 83.6676 76.7713 82.6842C76.7937 80.4728 76.031 78.3309 74.6297 76.6701C74.2359 76.1436 73.7321 75.7176 73.1566 75.4246C72.581 75.1316 71.9489 74.9793 71.3084 74.9793C70.6678 74.9793 70.0357 75.1316 69.4601 75.4246C68.8846 75.7176 68.3808 76.1436 67.987 76.6701C67.2116 77.546 66.6179 78.5793 66.2431 79.7052C65.8684 80.8311 65.7206 82.0256 65.8091 83.2137C65.8091 85.0671 64.7565 86.0506 63.1957 85.3319C62.1321 84.8102 60.9165 84.7352 59.8013 85.1226C58.6861 85.5099 57.7569 86.3299 57.2064 87.4122C56.1733 89.1321 55.6551 91.1336 55.7182 93.1616C55.7182 94.9393 54.6292 95.8471 53.141 95.1663C52.2368 94.7202 51.2128 94.6121 50.2411 94.86C49.2694 95.108 48.4092 95.697 47.8051 96.5279C46.3895 98.0409 44.9738 97.6248 44.3568 95.6201C43.9878 94.2848 43.4378 93.0111 42.7233 91.8377C42.2795 90.976 41.6198 90.2559 40.8145 89.7538C40.0091 89.2518 39.0882 88.9866 38.1497 88.9866C37.2112 88.9866 36.2903 89.2518 35.485 89.7538C34.6796 90.2559 34.0199 90.976 33.5761 91.8377C32.5258 93.4979 31.9126 95.4165 31.7979 97.4014C31.6833 99.3863 32.0711 101.368 32.9227 103.147C33.8665 105.303 33.7213 105.719 31.7975 106.93C30.5677 107.687 29.5218 108.729 28.7412 109.975C27.9606 111.221 27.4662 112.639 27.2965 114.116L113.142 114.078ZM52.2335 90.5138C54.5929 82.949 55.8634 81.8142 62.2519 80.8308C62.4525 78.5753 63.3116 76.438 64.7134 74.7067C66.1152 72.9754 67.9925 71.7333 70.0924 71.1477C70.0924 70.9586 70.0924 70.7695 70.0924 70.6182C67.9032 65.1638 64.969 60.0679 61.3807 55.4884C61.1942 55.3071 60.9652 55.1801 60.7167 55.1204C60.4682 55.0606 60.209 55.0701 59.9651 55.148C57.3153 56.9257 54.7744 58.9304 52.1609 60.6703C52.415 61.1999 52.5965 61.5781 52.8143 61.9564C54.738 65.595 55.6434 69.7229 55.4278 73.8711C55.2463 76.0271 54.3388 76.8214 52.415 76.0271C50.2645 75.2217 48.2069 74.1687 46.2806 72.8876C44.5652 71.4742 42.9404 69.9454 41.4166 68.3109L34.1569 73.3794C32.9953 74.2115 32.959 74.6654 33.7939 75.9136C35.4273 78.3344 37.1334 80.7173 38.7305 83.1759C39.605 84.5399 40.7896 85.6573 42.1788 86.4288C43.5588 87.3191 44.7858 88.4442 45.8087 89.7574C46.2445 90.3998 46.6213 91.0837 46.9339 91.7999L52.2335 90.5138ZM51.8342 71.9042C51.8342 70.9586 51.8342 70.2399 51.5801 69.5591C51.0422 66.5944 49.9038 63.7833 48.2407 61.3133C39.0209 47.3183 29.8132 33.3358 20.6176 19.366L20.0005 18.496L15.6084 22.0515L16.1529 22.9215L37.5689 55.4127C39.6743 58.6278 41.7796 61.8807 43.9212 65.058C45.9164 68.0435 48.6511 70.4095 51.8342 71.9042ZM4.28326 11.7254C5.48111 13.4654 6.57006 15.2431 7.91311 16.8318C8.88912 17.96 10.2451 18.6525 11.6987 18.7652C13.1524 18.8779 14.5918 18.4022 15.7173 17.4369C16.8942 16.5037 17.6797 15.1327 17.9097 13.6103C18.1397 12.0879 17.7963 10.5318 16.9514 9.26686C15.8625 7.6404 14.5557 6.12742 13.3216 4.50097L5.11812 10.969L4.28326 11.7254Z" fill="white"/>
<path d="M65.3372 94.7879C65.1437 94.9087 64.9614 95.048 64.7927 95.204C64.6292 95.3972 64.4281 95.5519 64.2028 95.6579C63.9775 95.7639 63.7332 95.8187 63.486 95.8187C63.2388 95.8187 62.9944 95.7639 62.7691 95.6579C62.5438 95.5519 62.3427 95.3972 62.1792 95.204C62.0042 95.0081 61.8702 94.7764 61.7857 94.5236C61.7013 94.2708 61.6683 94.0025 61.6888 93.7356C61.7092 93.4688 61.7828 93.2094 61.9047 92.9738C62.0267 92.7382 62.1943 92.5316 62.397 92.3672C62.7707 91.9491 63.223 91.6156 63.7257 91.3877C64.2284 91.1597 64.7708 91.042 65.3191 91.042C65.8673 91.042 66.4097 91.1597 66.9124 91.3877C67.4152 91.6156 67.8674 91.9491 68.2411 92.3672C69.1486 93.3884 69.2574 94.4097 68.4952 95.204C68.3316 95.4036 68.1285 95.5638 67.8997 95.6737C67.671 95.7836 67.4221 95.8405 67.1703 95.8405C66.9184 95.8405 66.6696 95.7836 66.4408 95.6737C66.2121 95.5638 66.009 95.4036 65.8454 95.204L65.3372 94.7879Z" fill="white"/>
<path d="M92.8877 105.72C92.4522 106.06 92.1618 106.514 91.8714 106.514C91.581 106.514 90.2017 106.514 89.8024 106.136C89.5991 105.823 89.47 105.464 89.4259 105.09C89.3817 104.715 89.4236 104.334 89.5483 103.98C89.9055 103.394 90.3988 102.912 90.9826 102.577C91.5664 102.243 92.2217 102.068 92.8877 102.068C93.5538 102.068 94.2091 102.243 94.7929 102.577C95.3766 102.912 95.87 103.394 96.2272 103.98C96.4754 104.332 96.5871 104.769 96.54 105.204C96.4929 105.639 96.2905 106.039 95.9731 106.325C95.6756 106.623 95.2788 106.79 94.866 106.79C94.4532 106.79 94.0564 106.623 93.7589 106.325L92.8877 105.72Z" fill="white"/>
<path d="M70.6731 110.032L69.9471 110.599C69.5981 110.886 69.1586 111.027 68.7151 110.993C68.2716 110.959 67.8563 110.754 67.5511 110.417C67.2459 110.08 67.0729 109.636 67.0662 109.172C67.0596 108.709 67.2197 108.26 67.5151 107.913C67.87 107.431 68.3228 107.037 68.8411 106.759C69.3593 106.48 69.9302 106.325 70.5129 106.303C71.0956 106.281 71.6756 106.394 72.2116 106.633C72.7476 106.872 73.2262 107.232 73.6133 107.686C73.9971 108.018 74.2393 108.495 74.2869 109.012C74.3345 109.53 74.1837 110.046 73.8673 110.448C73.6976 110.637 73.4924 110.787 73.2645 110.89C73.0366 110.993 72.7909 111.046 72.5425 111.046C72.2941 111.046 72.0483 110.993 71.8204 110.89C71.5925 110.787 71.3873 110.637 71.2176 110.448L70.6731 110.032Z" fill="white"/>
<path d="M35.0643 94.8636C35.4465 94.2889 35.8979 93.7677 36.4074 93.3128C37.1803 92.8263 38.0995 92.6575 38.9855 92.8394C39.8715 93.0212 40.6606 93.5407 41.1988 94.2963C41.6707 95.0527 41.8158 95.9227 41.1988 96.4901C40.5618 96.847 39.8528 97.0414 39.1298 97.0574C38.6465 97.0192 38.1611 97.0192 37.6778 97.0574C36.3348 97.5113 35.0643 96.6792 35.0643 94.8636Z" fill="white"/>
<path d="M79.6026 92.7456C80.5598 93.3088 81.4704 93.9541 82.3249 94.6746C82.4709 94.8258 82.5867 95.0056 82.6658 95.2036C82.7448 95.4015 82.7855 95.6139 82.7855 95.8283C82.7855 96.0427 82.7448 96.2551 82.6658 96.4531C82.5867 96.651 82.4709 96.8308 82.3249 96.9819C82.064 97.3132 81.7027 97.5423 81.3004 97.6317C80.8981 97.721 80.4787 97.6653 80.1107 97.4737C79.7246 97.3228 79.299 97.3228 78.9129 97.4737C78.509 97.6875 78.043 97.7362 77.6064 97.6102C77.1699 97.4842 76.7943 97.1927 76.5535 96.7928C76.4122 96.6174 76.3072 96.4135 76.245 96.1939C76.1828 95.9743 76.1648 95.7437 76.192 95.5164C76.2193 95.2892 76.2912 95.0703 76.4034 94.8734C76.5156 94.6765 76.6655 94.5058 76.8439 94.3721C77.7294 93.7695 78.6508 93.2262 79.6026 92.7456Z" fill="white"/>
<path d="M49.7652 105.606C50.6973 106.173 51.5835 106.818 52.415 107.535C52.5749 107.673 52.7036 107.847 52.792 108.043C52.8803 108.239 52.9261 108.453 52.9261 108.67C52.9261 108.886 52.8803 109.1 52.792 109.296C52.7036 109.493 52.5749 109.666 52.415 109.804C51.7617 110.147 51.0412 110.329 50.3097 110.334C49.8741 110.334 49.4022 110.334 49.0029 110.334C48.6037 110.504 48.1612 110.529 47.7465 110.406C47.3318 110.282 46.9689 110.017 46.7161 109.653C46.5677 109.483 46.4556 109.281 46.3874 109.062C46.3191 108.844 46.2963 108.612 46.3203 108.383C46.3443 108.154 46.4147 107.933 46.5267 107.735C46.6387 107.537 46.7899 107.365 46.9702 107.232C47.8613 106.618 48.7956 106.074 49.7652 105.606Z" fill="white"/>
</g>
<defs>
<clipPath id="clip0_271_258">
<rect width="117.861" height="117.861" fill="white"/>
</clipPath>
</defs>
</svg>
