<svg width="120" height="120" viewBox="0 0 120 120" fill="none" xmlns="http://www.w3.org/2000/svg">
<path d="M23.0497 0C23.8128 0 24.5784 0 25.3415 0C29.6852 1.41311 34.0262 2.82854 38.3699 4.24165C40.7931 5.03084 43.2795 5.29391 45.8594 5.28693C62.0664 5.24037 78.2735 5.28227 94.478 5.23338C96.1457 5.22873 97.8766 5.00291 99.466 4.54662C103.711 3.33372 107.873 1.87871 112.115 0.658829C113.316 0.314283 114.746 0.158305 115.948 0.414387C119.216 1.10814 120.792 4.21371 119.607 7.2541C118.374 10.4109 117.078 13.5467 115.86 16.7082C115.625 17.3158 115.458 18.0119 115.532 18.6404C115.822 21.164 116.196 23.6806 116.583 26.1925C118.122 36.224 119.062 46.2973 119.274 56.4288C119.574 70.7345 118.061 84.9168 115.807 99.0409C115.438 101.348 115.504 103.501 116.507 105.666C117.52 107.852 118.344 110.115 119.289 112.329C120.249 114.578 120.024 116.629 118.127 118.38C116.393 119.979 114.043 120.205 111.413 119.129C108.277 117.847 105.159 116.524 101.983 115.335C100.919 114.937 99.701 114.722 98.5513 114.715C91.0011 114.662 83.4484 114.687 75.8958 114.687C75.4485 114.687 75.0012 114.687 74.4832 114.687C74.4832 116.555 74.4832 118.259 74.4832 120C49.5839 120 24.7604 120 0 120C0 98.6567 0 77.4066 0 55.8119C3.16359 56.0726 6.264 56.0121 9.17743 56.6593C12.1187 57.3111 14.8729 58.6661 17.6853 59.7043C17.6827 59.7509 17.7055 59.5647 17.7055 59.3784C17.7156 46.8863 19.0346 34.4942 20.9171 22.1371C21.2986 19.6229 22.1072 17.1016 21.2102 14.4966C20.3384 11.9707 19.6385 9.39123 18.9108 6.82342C18.7213 6.15295 18.6 5.43127 18.6505 4.74683C18.8375 2.18601 20.6189 0.826446 23.0497 0ZM110.458 110.907C109.899 109.473 109.391 108.204 108.914 106.924C108.113 104.775 107.582 102.654 107.913 100.289C109.083 91.9241 110.296 83.5549 111.036 75.1507C112.515 58.3681 111.261 41.6692 108.765 25.0122C107.451 16.2426 106.809 18.971 110.352 9.8708C110.496 9.49831 110.604 9.11419 110.784 8.56944C109.24 9.05599 107.931 9.50064 106.599 9.88011C102.925 10.9254 99.3422 12.3059 95.3953 12.3012C78.1295 12.2919 60.8637 12.3012 43.5979 12.285C42.5442 12.285 41.4475 12.2593 40.4494 11.9963C36.6668 10.9952 32.917 9.89408 29.157 8.82319C28.586 8.66023 28.025 8.47166 27.2771 8.23885C27.7344 9.83122 28.1893 11.1722 28.495 12.541C28.8437 14.0985 29.3718 15.7001 29.2733 17.2506C29.0787 20.2444 28.5405 23.2243 28.073 26.1995C26.0869 38.7918 25.1647 51.4469 25.3668 64.1695C25.3921 65.8107 25.3895 67.459 25.574 69.0886C25.6827 70.0384 25.9379 71.093 26.5317 71.8263C26.8374 72.2035 28.02 72.0149 28.8083 72.0196C39.9289 72.108 49.6976 79.3621 52.0703 89.3703C52.4645 91.0301 52.6009 92.7412 52.8562 94.4128C61.7026 95.5838 68.2167 99.7137 72.2622 107.084C72.434 107.398 73.1264 107.624 73.5787 107.627C79.686 107.662 85.8034 107.82 91.9032 107.603C98.2758 107.375 104.421 107.806 110.079 110.814C110.119 110.832 110.165 110.835 110.458 110.907ZM7.61332 63.4967C7.61332 80.1234 7.61332 96.5522 7.61332 112.997C27.2316 112.997 46.7614 112.997 66.4252 112.997C66.2483 112.436 66.127 111.947 65.9451 111.479C63.5901 105.436 57.8542 101.695 50.4632 101.369C47.6155 101.243 45.5107 99.6974 45.0483 97.2692C44.8966 96.4754 44.9927 95.635 45.028 94.8178C45.4323 85.4615 36.5531 77.9909 26.4761 79.2224C22.4938 79.709 20.2373 78.3122 19.3252 74.7294C18.6732 72.1685 17.4629 69.8778 15.5652 67.9153C13.4629 65.7339 10.8931 64.251 7.61332 63.4967Z" fill="white"/>
<path d="M45.0988 62.3188C45.0988 53.1953 45.0988 44.1463 45.0988 35.0205C60.9167 35.0205 76.674 35.0205 92.5374 35.0205C92.5374 44.0951 92.5374 53.1697 92.5374 62.3188C76.7751 62.3188 61.0102 62.3188 45.0988 62.3188ZM84.9367 42.0721C74.1725 42.0721 63.4739 42.0721 52.7475 42.0721C52.7475 46.5186 52.7475 50.879 52.7475 55.2743C63.5219 55.2743 74.2255 55.2743 84.9367 55.2743C84.9367 50.8301 84.9367 46.4674 84.9367 42.0721Z" fill="white"/>
<path d="M79.7668 69.5776C79.7668 71.9057 79.7668 74.1243 79.7668 76.4337C72.5048 76.4337 65.2856 76.4337 57.9907 76.4337C57.9907 74.1708 57.9907 71.9196 57.9907 69.5776C65.2098 69.5776 72.4315 69.5776 79.7668 69.5776Z" fill="white"/>
<path d="M20.7528 90.2063C20.7427 91.9686 18.9209 93.5749 16.9222 93.5796C14.8628 93.5865 13.1142 91.9057 13.1218 89.9246C13.1294 88.1576 14.9436 86.5559 16.9474 86.5513C19.0068 86.5466 20.7654 88.2368 20.7528 90.2063Z" fill="white"/>
<path d="M30.3724 104.843C30.3851 103.036 32.1387 101.506 34.1955 101.509C36.2852 101.513 38.011 103.173 37.9858 105.159C37.9656 106.907 36.0982 108.539 34.1298 108.528C32.0629 108.518 30.3598 106.847 30.3724 104.843Z" fill="white"/>
</svg>
